<?xml version="1.0" encoding="UTF-8" standalone="no"?>
<!DOCTYPE svg PUBLIC "-//W3C//DTD SVG 1.1//EN"
 "http://www.w3.org/Graphics/SVG/1.1/DTD/svg11.dtd">
<!-- Generated by graphviz version 2.40.1 (20161225.0304)
 -->
<!-- Title: flow Pages: 1 -->
<svg width="488pt" height="404pt"
 viewBox="0.00 0.00 487.75 404.00" xmlns="http://www.w3.org/2000/svg" xmlns:xlink="http://www.w3.org/1999/xlink">
<g id="graph0" class="graph" transform="scale(1 1) rotate(0) translate(4 400)">
<title>flow</title>
<polygon fill="#ffffff" stroke="transparent" points="-4,4 -4,-400 483.7505,-400 483.7505,4 -4,4"/>
<!-- login -->
<g id="node1" class="node">
<title>login</title>
<ellipse fill="none" stroke="#000000" cx="104.0967" cy="-378" rx="28.0736" ry="18"/>
<text text-anchor="middle" x="104.0967" y="-373.8" font-family="Times,serif" font-size="14.00" fill="#000000">login</text>
</g>
<!-- register -->
<g id="node2" class="node">
<title>register</title>
<ellipse fill="none" stroke="#000000" cx="72.0967" cy="-306" rx="36.7489" ry="18"/>
<text text-anchor="middle" x="72.0967" y="-301.8" font-family="Times,serif" font-size="14.00" fill="#000000">register</text>
</g>
<!-- login&#45;&gt;register -->
<g id="edge1" class="edge">
<title>login&#45;&gt;register</title>
<path fill="none" stroke="#000000" d="M96.3504,-360.5708C92.6712,-352.2927 88.1903,-342.2104 84.0857,-332.9752"/>
<polygon fill="#000000" stroke="#000000" points="87.2538,-331.4855 79.994,-323.7689 80.8571,-334.3285 87.2538,-331.4855"/>
</g>
<!-- elections -->
<g id="node3" class="node">
<title>elections</title>
<ellipse fill="none" stroke="#000000" cx="104.0967" cy="-234" rx="41.5766" ry="18"/>
<text text-anchor="middle" x="104.0967" y="-229.8" font-family="Times,serif" font-size="14.00" fill="#000000">elections</text>
</g>
<!-- login&#45;&gt;elections -->
<g id="edge2" class="edge">
<title>login&#45;&gt;elections</title>
<path fill="none" stroke="#000000" d="M109.9206,-360.2229C113.0286,-349.7972 116.5286,-336.2972 118.0967,-324 120.1207,-308.1285 120.1207,-303.8715 118.0967,-288 117.0114,-279.4887 115.0005,-270.4011 112.8347,-262.1555"/>
<polygon fill="#000000" stroke="#000000" points="116.1331,-260.9542 110.0666,-252.2681 109.3923,-262.8414 116.1331,-260.9542"/>
</g>
<!-- register&#45;&gt;elections -->
<g id="edge3" class="edge">
<title>register&#45;&gt;elections</title>
<path fill="none" stroke="#000000" d="M80.0068,-288.2022C83.6223,-280.0675 87.9856,-270.2501 91.9998,-261.2181"/>
<polygon fill="#000000" stroke="#000000" points="95.3036,-262.4022 96.1667,-251.8425 88.9069,-259.5592 95.3036,-262.4022"/>
</g>
<!-- election -->
<g id="node4" class="node">
<title>election</title>
<ellipse fill="none" stroke="#000000" cx="38.0967" cy="-162" rx="38.1937" ry="18"/>
<text text-anchor="middle" x="38.0967" y="-157.8" font-family="Times,serif" font-size="14.00" fill="#000000">election</text>
</g>
<!-- elections&#45;&gt;election -->
<g id="edge4" class="edge">
<title>elections&#45;&gt;election</title>
<path fill="none" stroke="#000000" d="M88.4557,-216.937C80.154,-207.8806 69.8034,-196.5891 60.6489,-186.6023"/>
<polygon fill="#000000" stroke="#000000" points="62.9629,-183.947 53.6255,-178.9405 57.8028,-188.6771 62.9629,-183.947"/>
</g>
<!-- ballot -->
<g id="node5" class="node">
<title>ballot</title>
<ellipse fill="none" stroke="#000000" cx="84.0967" cy="-90" rx="30.4949" ry="18"/>
<text text-anchor="middle" x="84.0967" y="-85.8" font-family="Times,serif" font-size="14.00" fill="#000000">ballot</text>
</g>
<!-- elections&#45;&gt;ballot -->
<g id="edge5" class="edge">
<title>elections&#45;&gt;ballot</title>
<path fill="none" stroke="#000000" d="M101.5637,-215.7623C98.1524,-191.201 92.0478,-147.2474 88.0348,-118.3541"/>
<polygon fill="#000000" stroke="#000000" points="91.4517,-117.513 86.6092,-108.0896 84.5182,-118.4761 91.4517,-117.513"/>
</g>
<!-- tally -->
<g id="node6" class="node">
<title>tally</title>
<ellipse fill="none" stroke="#000000" cx="113.0967" cy="-18" rx="27" ry="18"/>
<text text-anchor="middle" x="113.0967" y="-13.8" font-family="Times,serif" font-size="14.00" fill="#000000">tally</text>
</g>
<!-- elections&#45;&gt;tally -->
<g id="edge6" class="edge">
<title>elections&#45;&gt;tally</title>
<path fill="none" stroke="#000000" d="M108.6618,-216.0516C115.7003,-186.2025 127.9123,-124.4505 123.0967,-72 122.3122,-63.455 120.8433,-54.244 119.2683,-45.8914"/>
<polygon fill="#000000" stroke="#000000" points="122.6594,-45.001 117.2599,-35.8853 115.7963,-46.3786 122.6594,-45.001"/>
</g>
<!-- election&#45;&gt;ballot -->
<g id="edge7" class="edge">
<title>election&#45;&gt;ballot</title>
<path fill="none" stroke="#000000" d="M49.2321,-144.5708C54.7128,-135.9922 61.4314,-125.4762 67.5028,-115.9732"/>
<polygon fill="#000000" stroke="#000000" points="70.6295,-117.58 73.064,-107.2687 64.7306,-113.8113 70.6295,-117.58"/>
</g>
<!-- ballot&#45;&gt;tally -->
<g id="edge8" class="edge">
<title>ballot&#45;&gt;tally</title>
<path fill="none" stroke="#000000" d="M91.2653,-72.2022C94.5664,-64.0064 98.5555,-54.1024 102.2159,-45.0145"/>
<polygon fill="#000000" stroke="#000000" points="105.521,-46.1766 106.0107,-35.593 99.0279,-43.5612 105.521,-46.1766"/>
</g>
<!-- voters -->
<g id="node7" class="node">
<title>voters</title>
<ellipse fill="none" stroke="#000000" cx="182.0967" cy="-378" rx="31.9393" ry="18"/>
<text text-anchor="middle" x="182.0967" y="-373.8" font-family="Times,serif" font-size="14.00" fill="#000000">voters</text>
</g>
<!-- your&#45;ballots -->
<g id="node8" class="node">
<title>your&#45;ballots</title>
<ellipse fill="none" stroke="#000000" cx="284.0967" cy="-378" rx="52.8412" ry="18"/>
<text text-anchor="middle" x="284.0967" y="-373.8" font-family="Times,serif" font-size="14.00" fill="#000000">your&#45;ballots</text>
</g>
<!-- election&#45;voters -->
<g id="node9" class="node">
<title>election&#45;voters</title>
<ellipse fill="none" stroke="#000000" cx="417.0967" cy="-378" rx="62.8079" ry="18"/>
<text text-anchor="middle" x="417.0967" y="-373.8" font-family="Times,serif" font-size="14.00" fill="#000000">election&#45;voters</text>
</g>
</g>
</svg>
